<?xml version="1.0" encoding="UTF-8" standalone="no"?>
<!DOCTYPE svg PUBLIC "-//W3C//DTD SVG 1.1//EN"
"http://www.w3.org/Graphics/SVG/1.1/DTD/svg11.dtd">
<svg viewBox="0 0 1466 825" version="1.1" xmlns="http://www.w3.org/2000/svg" xmlns:xlink="http://www.w3.org/1999/xlink">
<defs>
<clipPath id="c0_4"><path d="M932.3,413.4V84.9h365.1V413.4Z"/></clipPath>
<clipPath id="c1_4"><path d="M936.5,402.7V89.2h350.2V402.7Z"/></clipPath>
<clipPath id="c2_4"><path d="M67.8,442.1V282.9H746.5V442.1Z"/></clipPath>
<clipPath id="c3_4"><path d="M72.1,431.4V287.2H735.8V431.4Z"/></clipPath>
<clipPath id="c4_4"><path d="M870.5,694.2V514.3h488.3V694.2Z"/></clipPath>
<clipPath id="c5_4"><path d="M874.8,683.3V518.5h473.3V683.3Z"/></clipPath>
<clipPath id="c6_4"><path d="M870.5,738.5V553.4h488.3V738.5Z"/></clipPath>
<clipPath id="c7_4"><path d="M874.8,727.8V557.6h473.3V727.8Z"/></clipPath>
<clipPath id="c8_4"><path d="M870.5,782.2V685.7h488.3v96.5Z"/></clipPath>
<clipPath id="c9_4"><path d="M874.8,771.4V689.9h473.3v81.5Z"/></clipPath>
<clipPath id="ca_4"><path d="M122.5,783.8V515.2H678V783.8Z"/></clipPath>
<clipPath id="cb_4"><path d="M127.4,726.1V519.4H667.1V726.1Z"/></clipPath>
<clipPath id="cc_4"><path d="M239.6,773.4V704H667.3v69.4Z"/></clipPath>
<style type="text/css"><![CDATA[
.g0_4{
fill: #FFFFFF;
}
.g1_4{
fill: none;
stroke: #F1F1F1;
stroke-width: 1.145;
stroke-linecap: butt;
stroke-linejoin: round;
}
.g2_4{
fill: none;
stroke: #D9D9D9;
stroke-width: 1.527;
stroke-linecap: butt;
stroke-linejoin: miter;
stroke-miterlimit: 8;
}
.g3_4{
fill: #FFFFFF;
stroke: #FFFFFF;
stroke-width: 1.527;
stroke-linecap: butt;
stroke-linejoin: miter;
stroke-miterlimit: 8;
}
]]></style>
</defs>
<path d="M0,825H1466.7V0H0V825Z" class="g0_4"/>
<image preserveAspectRatio="none" x="0" y="0" width="1467" height="825" xlink:href="img/1.jpg"/>
<image clip-path="url(#c0_4)" preserveAspectRatio="none" x="932" y="85" width="365" height="328" xlink:href="img/2.png"/>
<image clip-path="url(#c1_4)" preserveAspectRatio="none" x="937" y="89" width="350" height="314" xlink:href="img/3.jpg"/>
<path d="M936,88.6h351.3V403.3H936V88.6Z" class="g1_4"/>
<image clip-path="url(#c2_4)" preserveAspectRatio="none" x="68" y="283" width="678" height="159" xlink:href="img/4.png"/>
<image clip-path="url(#c3_4)" preserveAspectRatio="none" x="72" y="287" width="664" height="144" xlink:href="img/5.jpg"/>
<path d="M71.5,286.6H736.4V432H71.5V286.6Z" class="g1_4"/>
<image clip-path="url(#c4_4)" preserveAspectRatio="none" x="871" y="514" width="488" height="180" xlink:href="img/6.png"/>
<image clip-path="url(#c5_4)" preserveAspectRatio="none" x="875" y="519" width="473" height="164" xlink:href="img/7.png"/>
<path d="M874.2,518h474.5V684.1H874.2V518Z" class="g1_4"/>
<image clip-path="url(#c6_4)" preserveAspectRatio="none" x="871" y="553" width="488" height="186" xlink:href="img/8.png"/>
<image clip-path="url(#c7_4)" preserveAspectRatio="none" x="875" y="558" width="473" height="170" xlink:href="img/9.png"/>
<path d="M874.2,557.1h474.5V728.4H874.2V557.1Z" class="g1_4"/>
<image clip-path="url(#c8_4)" preserveAspectRatio="none" x="871" y="686" width="488" height="96" xlink:href="img/10.png"/>
<image clip-path="url(#c9_4)" preserveAspectRatio="none" x="875" y="690" width="473" height="81" xlink:href="img/11.png"/>
<path d="M874.2,689.4h474.5v82.7H874.2V689.4Z" class="g1_4"/>
<image clip-path="url(#ca_4)" preserveAspectRatio="none" x="123" y="515" width="555" height="269" xlink:href="img/12.png"/>
<path d="M126.3,519H667.5V773.2H126.3V519Z" class="g2_4"/>
<image clip-path="url(#cb_4)" preserveAspectRatio="none" x="127" y="519" width="540" height="207" xlink:href="img/13.jpg"/>
<image clip-path="url(#cc_4)" preserveAspectRatio="none" x="240" y="704" width="428" height="70" xlink:href="img/14.jpg"/>
<path fill-rule="evenodd" d="M128.2,724.9H245.5v47.7H128.2V724.9Z" class="g3_4"/>
</svg>